<?xml version="1.0" standalone="no"?>
<!DOCTYPE svg PUBLIC "-//W3C//DTD SVG 20010904//EN"
 "http://www.w3.org/TR/2001/REC-SVG-20010904/DTD/svg10.dtd">
<svg version="1.0" xmlns="http://www.w3.org/2000/svg"
 width="310.000000pt" height="310.000000pt" viewBox="0 0 310.000000 310.000000"
 preserveAspectRatio="xMidYMid meet">
<metadata>
Created by potrace 1.14, written by Peter Selinger 2001-2017
</metadata>
<g transform="translate(0.000000,310.000000) scale(0.100000,-0.100000)"
fill="#000000" stroke="none">
<path d="M635 2888 c-254 -783 -279 -1627 -71 -2443 24 -95 71 -253 96 -323
11 -30 15 -32 57 -32 38 0 44 3 39 18 -51 163 -127 532 -155 752 -37 286 -44
394 -44 685 -1 354 19 591 74 905 16 92 101 453 125 533 5 14 -1 17 -40 17
l-45 0 -36 -112z"/>
<path d="M2391 2773 c97 -385 137 -692 146 -1108 11 -489 -37 -915 -156 -1388
l-48 -188 46 3 46 3 33 100 c68 207 145 550 176 787 41 314 46 753 11 1048
-32 277 -97 578 -178 832 l-43 133 -45 3 -46 3 58 -228z"/>
<path d="M1406 2831 c-47 -47 -58 -64 -53 -83 2 -12 21 -81 41 -153 20 -71 53
-204 73 -295 20 -91 39 -168 42 -172 4 -4 34 23 67 61 l61 69 -19 89 c-51 239
-134 543 -147 543 -4 0 -33 -27 -65 -59z"/>
<path d="M1931 2653 c-41 -624 -127 -1062 -259 -1317 -87 -170 -228 -334 -372
-432 -39 -26 -70 -53 -70 -59 0 -7 21 -64 46 -128 34 -87 49 -115 59 -110 40
23 156 128 212 193 297 344 434 777 513 1626 13 138 26 233 35 252 9 16 12 37
9 47 -7 16 -135 105 -152 105 -5 0 -14 -80 -21 -177z"/>
<path d="M1056 2651 l-56 -68 44 -174 c24 -96 58 -244 76 -329 17 -85 34 -163
39 -174 6 -16 16 -8 69 52 l62 70 -25 118 c-42 196 -137 574 -145 574 -4 0
-33 -31 -64 -69z"/>
</g>
</svg>
